<svg xmlns="http://www.w3.org/2000/svg" xmlns:xlink="http://www.w3.org/1999/xlink" id="Calque_1" width="120" height="120" x="0" y="0" enable-background="new 0 0 120 120" version="1.1" viewBox="0 0 120 120" xml:space="preserve"><path fill="#14171B" d="M119,99c0,11-9,20-20,20H21c-11,0-20-9-20-20V21C1,10,10,1,21,1h78c11,0,20,9,20,20V99z"/><g><circle cx="25" cy="25" r="2" fill="#FFF"/><circle cx="25" cy="60" r="2" fill="#FFF"/><circle cx="25" cy="95" r="2" fill="#FFF"/><circle cx="60" cy="25" r="2" fill="#FFF"/><circle cx="60" cy="60" r="2" fill="#FFF"/><circle cx="60" cy="95" r="2" fill="#FFF"/><circle cx="95" cy="25" r="2" fill="#FFF"/><circle cx="95" cy="60" r="2" fill="#FFF"/><circle cx="95" cy="95" r="2" fill="#FFF"/><g id="theLock"><line x1="25" x2="95" y1="25" y2="60" fill="none" stroke="#999" stroke-linecap="round" stroke-width="14"/><line x1="95" x2="25" y1="60" y2="95" fill="none" stroke="#CCC" stroke-linecap="round" stroke-width="14"/><line x1="25" x2="60" y1="95" y2="25" fill="none" stroke="#FFF" stroke-linecap="round" stroke-width="14"/><circle cx="60" cy="25" r="3.5" fill="#999"/></g></g></svg>